#!OML:ASF E:\acrobat2\Project_11_07_03\Capture day 1\Session 1\Acrobat.ASF
:FULLY-SPECIFIED
:DEGREES
240
root 11.1052 18.0584 -30.5179 48.3902 -88.5304 -45.1651
lowerback -3.10986 0.00146492 4.70542
upperback -3.93998 -0.134039 1.60306
thorax -2.31967 -0.207157 -0.98495
lowerneck -0.421089 0.711247 -0.863046
upperneck 1.54532 0.943981 0.730299
head 0.528676 0.470975 0.367336
rclavicle 1.78906e-015 1.90833e-014
rhumerus -9.70925 -30.6946 -8.04834
rradius 19.7332
rwrist 15.5403
rhand -12.2118 -47.4104
rfingers 7.12502
rthumb 13.8529 -76.9291
lclavicle 1.78906e-015 1.90833e-014
lhumerus -0.146387 4.56991 4.53059
lradius 20.8826
lwrist 9.1359
lhand -7.67654 -3.92136
lfingers 7.12502
lthumb 18.22 25.2453
rfemur 7.29549 12.1662 14.0903
rtibia -0.765345
rfoot -23.2211 -27.3367
rtoes 0.990644
lfemur 7.64238 -6.98582 -3.54723
ltibia -0.838418
lfoot -29.6967 -0.277406
ltoes 51.7232
241
root 11.1118 18.0612 -30.5373 43.0981 -88.7088 -39.8673
lowerback -3.02152 -0.0172507 4.64466
upperback -3.91131 -0.151962 1.59391
thorax -2.33999 -0.213857 -0.960522
lowerneck -0.340542 0.675361 -0.900868
upperneck 1.52237 0.894843 0.794429
head 0.508478 0.446425 0.392253
rclavicle 7.95139e-016 7.95139e-016
rhumerus -9.67181 -30.7471 -8.02258
rradius 19.7501
rwrist 15.4485
rhand -12.2126 -47.4266
rfingers 7.12502
rthumb 13.8522 -76.9453
lclavicle 7.95139e-016 7.95139e-016
lhumerus -0.166767 4.77262 4.43386
lradius 20.8745
lwrist 8.93014
lhand -7.55752 -3.99362
lfingers 7.12502
lthumb 18.3346 25.1623
rfemur 7.23502 12.0889 13.8571
rtibia -0.736356
rfoot -23.0963 -27.2962
rtoes 0.928406
lfemur 7.4541 -6.50271 -3.60199
ltibia -0.536913
lfoot -28.4677 3.66133
ltoes 43.094
242
root 11.118 18.0648 -30.5563 34.0391 -88.9574 -30.8379
lowerback -2.89008 0.0273843 4.65318
upperback -3.88095 -0.0837407 1.45742
thorax -2.3792 -0.180659 -1.10496
lowerneck -0.64053 0.781965 -0.30363
upperneck 1.54156 1.03864 0.408945
head 0.566582 0.519731 0.180123
rclavicle -1.2921e-015 5.56597e-015
rhumerus -9.84996 -30.7483 -7.96828
rradius 19.7543
rwrist 15.3148
rhand -12.2667 -47.3234
rfingers 7.12502
rthumb 13.8 -76.8457
lclavicle -1.2921e-015 5.56597e-015
lhumerus 0.0277373 4.66549 4.22893
lradius 20.8905
lwrist 9.0508
lhand -7.4745 -4.08083
lfingers 7.12502
lthumb 18.4144 25.0676
rfemur 7.21001 11.9438 13.5051
rtibia -0.737045
rfoot -22.8708 -27.1804
rtoes 0.653245
lfemur 7.40902 -6.38722 -3.86673
ltibia -0.376764
lfoot -28.1278 4.86071
ltoes 39.6946
243
root 11.1255 18.0707 -30.578 25.9097 -89.1095 -22.7368
lowerback -2.74983 0.0964447 4.70825
upperback -3.85273 0.0168743 1.40375
thorax -2.42365 -0.132104 -1.19013
lowerneck -0.588419 0.601942 -0.344099
upperneck 1.64221 0.798574 0.384718
head 0.589592 0.399072 0.177903
rclavicle -2.28602e-015 5.56597e-015
rhumerus -10.0658 -31.1311 -7.77382
rradius 19.7693
rwrist 15.5794
rhand -12.1017 -47.2993
rfingers 7.12502
rthumb 13.959 -76.8107
lclavicle -2.28602e-015 5.56597e-015
lhumerus 0.246264 4.61391 4.19068
lradius 20.9131
lwrist 9.08045
lhand -7.5775 -4.02848
lfingers 7.12502
lthumb 18.3153 25.1293
rfemur 7.16903 11.8768 13.3216
rtibia -0.704655
rfoot -22.737 -27.0954
rtoes 0.555808
lfemur 7.37249 -6.28441 -3.98307
ltibia -0.294314
lfoot -28.2349 3.94831
ltoes 42.558
244
root 11.135 18.076 -30.602 16.3313 -89.1253 -13.1425
lowerback -2.65267 0.107105 4.7023
upperback -3.83238 0.0378454 1.45942
thorax -2.45594 -0.120815 -1.12937
lowerneck -0.570728 0.674736 -0.406234
upperneck 1.45682 0.897105 0.396732
head 0.529322 0.448314 0.191571
rclavicle -9.93923e-016 8.74653e-015
rhumerus -10.1231 -31.3952 -7.58141
rradius 19.803
rwrist 15.7826
rhand -11.8993 -47.4147
rfingers 7.12502
rthumb 14.1541 -76.9125
lclavicle -9.93923e-016 8.74653e-015
lhumerus 0.291206 4.4339 4.21993
lradius 20.9638
lwrist 9.20894
lhand -7.72473 -3.92681
lfingers 7.12502
lthumb 18.1737 25.2442
rfemur 7.09728 11.8525 13.231
rtibia -0.659737
rfoot -22.6621 -27.1248
rtoes 0.397637
lfemur 7.23775 -6.30146 -4.03061
ltibia -0.234027
lfoot -28.2612 3.26409
ltoes 44.6922
245
root 11.1459 18.0814 -30.6272 4.84838 -89.0747 -1.64468
lowerback -2.53942 0.0452059 4.76707
upperback -3.8187 -0.0374974 1.43931
thorax -2.50998 -0.160708 -1.18636
lowerneck -0.470875 0.787322 -0.544063
upperneck 1.23653 1.04571 0.66445
head 0.443393 0.523593 0.294499
rclavicle -2.08724e-015 5.56597e-015
rhumerus -10.069 -31.3612 -7.66453
rradius 19.7824
rwrist 15.7084
rhand -11.5337 -47.3607
rfingers 7.12502
rthumb 14.5063 -76.8336
lclavicle -2.08724e-015 5.56597e-015
lhumerus 0.325314 4.50475 4.10801
lradius 20.9189
lwrist 9.16363
lhand -7.60407 -3.88265
lfingers 7.12502
lthumb 18.2898 25.2775
rfemur 7.02443 11.7526 13.0971
rtibia -0.608024
rfoot -22.7288 -27.0958
rtoes 0.516713
lfemur 7.10291 -6.34465 -4.118
ltibia -0.137539
lfoot -28.3819 1.8804
ltoes 48.3089
246
root 11.1577 18.0897 -30.6492 -15.6689 -89.0231 18.9301
lowerback -2.45869 0.00687739 4.75659
upperback -3.81108 -0.0830058 1.34988
thorax -2.55015 -0.184208 -1.27253
lowerneck -0.347783 0.802941 -0.584665
upperneck 1.15108 1.06622 0.703301
head 0.396749 0.533651 0.311895
rclavicle 8.94531e-016 -8.74653e-015
rhumerus -10.0005 -31.4004 -7.77398
rradius 19.7451
rwrist 15.7253
rhand -11.1389 -47.2495
rfingers 7.12502
rthumb 14.8866 -76.6946
lclavicle 8.94531e-016 -8.74653e-015
lhumerus 0.366712 4.75727 4.03477
lradius 20.8563
lwrist 9.09727
lhand -7.54861 -4.05135
lfingers 7.12502
lthumb 18.3431 25.1038
rfemur 6.8458 11.6041 12.7053
rtibia -0.5036
rfoot -22.6924 -27.0013
rtoes 0.531552
lfemur 6.89827 -6.00245 -4.36026
ltibia 0.103321
lfoot -28.3713 -0.296213
ltoes 52.6389
247
root 11.1679 18.0996 -30.6679 -35.678 -88.9002 39.0402
lowerback -2.46519 0.0110787 4.66635
upperback -3.78752 -0.0771645 1.34558
thorax -2.52109 -0.177635 -1.22676
lowerneck -0.293758 0.89626 -0.619145
upperneck 0.896243 1.19352 0.558482
head 0.310337 0.596683 0.272658
rclavicle 9.93923e-017 -1.98785e-014
rhumerus -9.83973 -31.3734 -7.74279
rradius 19.7331
rwrist 15.6007
rhand -11.4458 -47.1446
rfingers 7.12502
rthumb 14.591 -76.6113
lclavicle 9.93923e-017 -1.98785e-014
lhumerus 0.286229 4.93981 4.10563
lradius 20.8864
lwrist 9.09808
lhand -7.62071 -4.17536
lfingers 7.12502
lthumb 18.2738 24.9863
rfemur 6.56891 11.4136 12.226
rtibia -0.343759
rfoot -22.4748 -26.8166
rtoes 0.551773
lfemur 6.67844 -5.74605 -4.65446
ltibia 0.296434
lfoot -28.3348 -0.898354
ltoes 53.8575
248
root 11.1759 18.1075 -30.6944 -41.4732 -88.8637 44.8166
lowerback -2.36927 0.0361241 4.79386
upperback -3.7307 -0.038918 1.38623
thorax -2.51476 -0.159853 -1.25607
lowerneck -0.25854 1.02719 -0.719573
upperneck 0.53006 1.36933 0.653357
head 0.191778 0.684883 0.316238
rclavicle 2.08724e-015 -1.03368e-014
rhumerus -9.83902 -31.2837 -7.68583
rradius 19.7517
rwrist 15.3671
rhand -11.8118 -47.0942
rfingers 7.12502
rthumb 14.2384 -76.5861
lclavicle 2.08724e-015 -1.03368e-014
lhumerus 0.389832 5.56523 4.25739
lradius 20.8342
lwrist 8.67638
lhand -7.59763 -4.21347
lfingers 7.12502
lthumb 18.296 24.9461
rfemur 6.47302 11.336 12.1648
rtibia -0.220481
rfoot -22.3729 -26.6744
rtoes 0.60164
lfemur 6.69022 -5.80137 -4.6412
ltibia 0.234414
lfoot -28.3377 -0.862643
ltoes 54.0517
249
root 11.1866 18.1134 -30.7301 -37.7731 -88.9567 41.0049
lowerback -2.12116 0.0739072 5.14858
upperback -3.67795 0.0256759 1.41344
thorax -2.59799 -0.136905 -1.42573
lowerneck -0.373055 0.896367 -0.884217
upperneck 0.795272 1.19343 0.917205
head 0.289695 0.597415 0.424833
rclavicle -2.08724e-015 1.27222e-014
rhumerus -10.0385 -31.2929 -7.65059
rradius 19.7617
rwrist 15.3228
rhand -11.7252 -47.3275
rfingers 7.12502
rthumb 14.3218 -76.8135
lclavicle -2.08724e-015 1.27222e-014
lhumerus 0.635249 5.94402 4.31094
lradius 20.7943
lwrist 8.54135
lhand -7.71571 -4.19805
lfingers 7.12502
lthumb 18.1824 24.9721
rfemur 6.52556 11.5909 12.538
rtibia -0.142722
rfoot -22.4967 -26.8327
rtoes 0.664296
lfemur 6.7499 -5.60692 -4.24154
ltibia 0.231108
lfoot -28.0807 -1.3019
ltoes 54.8106
250
root 11.1989 18.1201 -30.7696 -39.7788 -88.8751 42.9118
lowerback -1.89205 0.0652043 5.24872
upperback -3.63202 0.0300475 1.41861
thorax -2.67967 -0.137372 -1.47618
lowerneck -0.436026 0.886217 -0.76302
upperneck 0.919758 1.18098 0.676719
head 0.339521 0.590679 0.332886
rclavicle 2.5842e-015 -2.06736e-014
rhumerus -10.1407 -31.0606 -7.65418
rradius 19.7526
rwrist 15.0399
rhand -12.0231 -47.7674
rfingers 7.12502
rthumb 14.0348 -77.2736
lclavicle 2.5842e-015 -2.06736e-014
lhumerus 0.729027 5.82139 4.26271
lradius 20.8659
lwrist 8.81074
lhand -7.97934 -4.1107
lfingers 7.12502
lthumb 17.9287 25.0829
rfemur 6.58913 11.7211 12.6543
rtibia -0.0952049
rfoot -22.5986 -26.9461
rtoes 1.13316
lfemur 6.705 -5.22451 -4.00786
ltibia 0.368327
lfoot -27.5213 -1.02413
ltoes 54.7789
251
root 11.2087 18.1313 -30.8111 -47.8186 -88.3288 50.8717
lowerback -1.74914 -0.0460264 4.88117
upperback -3.58081 -0.106869 1.3221
thorax -2.71317 -0.194895 -1.3698
lowerneck -0.454037 0.909448 -0.633039
upperneck 0.980641 1.21459 0.286947
head 0.363288 0.606087 0.194341
rclavicle 4.17448e-015 -3.65764e-014
rhumerus -10.1696 -30.9044 -7.76063
rradius 19.7784
rwrist 14.7612
rhand -12.9291 -48.0796
rfingers 7.12502
rthumb 13.1615 -77.6442
lclavicle 4.17448e-015 -3.65764e-014
lhumerus 0.70921 5.4068 4.10604
lradius 20.9713
lwrist 9.36964
lhand -8.252 -4.15502
lfingers 7.12502
lthumb 17.6663 25.0624
rfemur 6.71739 11.2542 12.0961
rtibia -0.118809
rfoot -22.3107 -26.8099
rtoes 0.542969
lfemur 6.60151 -4.86625 -4.36251
ltibia 0.480823
lfoot -26.7096 -1.20765
ltoes 55.4884
252
root 11.2192 18.15 -30.8435 -57.0685 -87.5479 60.1824
lowerback -1.74234 -0.145943 4.37541
upperback -3.55777 -0.239126 1.1116
thorax -2.69719 -0.247575 -1.30347
lowerneck -0.460421 1.07741 -0.639345
upperneck 0.565072 1.43897 0.337558
head 0.23718 0.71919 0.209525
rclavicle -5.06901e-015 1.90833e-014
rhumerus -10.1502 -31.1775 -7.94939
rradius 19.7869
rwrist 14.973
rhand -13.7931 -48.0097
rfingers 7.12502
rthumb 12.3286 -77.6263
lclavicle -5.06901e-015 1.90833e-014
lhumerus 0.67361 5.05304 3.90914
lradius 21.0565
lwrist 9.83502
lhand -8.23906 -4.24424
lfingers 7.12502
lthumb 17.6788 24.9721
rfemur 6.62651 10.564 11.0654
rtibia -0.0825868
rfoot -21.5898 -26.5432
rtoes -1.38255
lfemur 6.37355 -4.51621 -5.13191
ltibia 0.62138
lfoot -26.0407 -2.06386
ltoes 56.8275
253
root 11.2293 18.164 -30.8832 -59.2017 -87.177 62.2884
lowerback -1.64776 -0.163056 4.29158
upperback -3.51555 -0.256773 1.00755
thorax -2.70745 -0.253865 -1.36342
lowerneck -0.223507 0.943817 -0.995234
upperneck 0.559273 1.25949 0.565078
head 0.194664 0.629099 0.334181
rclavicle -9.93923e-016 8.74653e-015
rhumerus -10.2797 -31.2877 -7.98302
rradius 19.7835
rwrist 14.9857
rhand -13.8879 -47.6968
rfingers 7.12502
rthumb 12.2371 -77.3188
lclavicle -9.93923e-016 8.74653e-015
lhumerus 0.850436 5.18999 3.89451
lradius 21.0746
lwrist 9.72242
lhand -8.03942 -4.27436
lfingers 7.12502
lthumb 17.8709 24.9245
rfemur 6.6749 10.425 10.7545
rtibia -0.105783
rfoot -21.4252 -26.445
rtoes -1.68593
lfemur 6.31925 -4.22203 -5.25457
ltibia 0.67348
lfoot -25.5175 -1.81541
ltoes 56.9601
